<svg xmlns="http://www.w3.org/2000/svg" width="317" height="358" fill="none" viewBox="0 0 317 358"><path stroke="#000" stroke-linecap="round" stroke-linejoin="round" stroke-miterlimit="10" stroke-width="3.141" d="M133.068 204.008C133.068 197.749 135.871 194.729 138.963 187.517C139.753 185.676 145.577 166.503 145.577 166.503H172.543C172.543 166.503 177.225 184.831 178.112 186.323C181.835 192.602 185.053 197.176 185.053 204.008C185.053 218.364 173.415 230 159.06 230C144.704 230 133.068 218.362 133.068 204.008Z"/><path fill="#000" d="M159.06 167.147V185.899V167.147Z"/><path stroke="#000" stroke-linecap="round" stroke-linejoin="round" stroke-miterlimit="10" stroke-width="3.141" d="M159.06 167.147V185.899"/><path fill="#000" d="M149.684 185.899H168.436H149.684Z"/><path stroke="#000" stroke-linecap="round" stroke-linejoin="round" stroke-miterlimit="10" stroke-width="3.141" d="M149.684 185.899H168.436"/><path fill="#000" stroke="#000" stroke-linecap="round" stroke-linejoin="round" stroke-miterlimit="10" stroke-width="2.664" d="M146.244 148.976C146.244 143.887 151.978 139.761 159.052 139.761C166.126 139.761 171.86 143.887 171.86 148.976H146.244Z"/><path fill="#000" stroke="#000" stroke-linecap="round" stroke-linejoin="round" stroke-miterlimit="10" stroke-width="2.664" d="M175.51 2.29901C175.51 7.38759 165.48 8.00032 158.406 8.00032C151.333 8.00032 143.203 7.38771 143.203 2.29913L175.51 2.29901Z"/><path fill="#000" d="M171.641 154.959L146.48 160.409L171.641 154.959Z"/><path stroke="#000" stroke-linecap="round" stroke-linejoin="round" stroke-miterlimit="10" stroke-width="3.086" d="M171.641 154.959L146.48 160.409"/><path fill="#000" d="M155.605 153.248L146.527 155.101L155.605 153.248Z"/><path stroke="#000" stroke-linecap="round" stroke-linejoin="round" stroke-miterlimit="10" stroke-width="3.141" d="M155.605 153.248L146.527 155.101"/><path fill="#000" d="M171.593 160.268L162.515 162.121L171.593 160.268Z"/><path stroke="#000" stroke-linecap="round" stroke-linejoin="round" stroke-miterlimit="10" stroke-width="3.141" d="M171.593 160.268L162.515 162.121"/><g filter="url(#filter0_dd_22_505)"><circle cx="158.406" cy="199.56" r="30.406" fill="#000" fill-opacity=".01"/></g><path stroke="#000" stroke-width="1.014" d="M158.913 138.763L158.913 8.0002"/><defs><filter id="filter0_dd_22_505" width="316.226" height="316.226" x=".293" y="41.447" color-interpolation-filters="sRGB" filterUnits="userSpaceOnUse"><feFlood flood-opacity="0" result="BackgroundImageFix"/><feColorMatrix in="SourceAlpha" result="hardAlpha" type="matrix" values="0 0 0 0 0 0 0 0 0 0 0 0 0 0 0 0 0 0 127 0"/><feOffset/><feGaussianBlur stdDeviation="9.122"/><feColorMatrix type="matrix" values="0 0 0 0 1 0 0 0 0 1 0 0 0 0 1 0 0 0 1 0"/><feBlend in2="BackgroundImageFix" mode="normal" result="effect1_dropShadow_22_505"/><feColorMatrix in="SourceAlpha" result="hardAlpha" type="matrix" values="0 0 0 0 0 0 0 0 0 0 0 0 0 0 0 0 0 0 127 0"/><feOffset/><feGaussianBlur stdDeviation="63.853"/><feColorMatrix type="matrix" values="0 0 0 0 1 0 0 0 0 1 0 0 0 0 1 0 0 0 1 0"/><feBlend in2="effect1_dropShadow_22_505" mode="normal" result="effect2_dropShadow_22_505"/><feBlend in="SourceGraphic" in2="effect2_dropShadow_22_505" mode="normal" result="shape"/></filter></defs></svg>