<svg xmlns="http://www.w3.org/2000/svg" width="317" height="358" fill="none" viewBox="0 0 317 358"><path stroke="#fff" stroke-linecap="round" stroke-linejoin="round" stroke-miterlimit="10" stroke-width="3.141" d="M133.068 204.007C133.068 197.749 135.871 194.729 138.964 187.517C139.753 185.676 145.577 166.503 145.577 166.503H172.544C172.544 166.503 177.225 184.831 178.113 186.323C181.835 192.602 185.053 197.176 185.053 204.007C185.053 218.364 173.415 230 159.06 230C144.704 230 133.068 218.362 133.068 204.007Z"/><path fill="#fff" d="M159.06 167.147V185.899V167.147Z"/><path stroke="#fff" stroke-linecap="round" stroke-linejoin="round" stroke-miterlimit="10" stroke-width="3.141" d="M159.06 167.147V185.899"/><path fill="#fff" d="M149.684 185.899H168.437H149.684Z"/><path stroke="#fff" stroke-linecap="round" stroke-linejoin="round" stroke-miterlimit="10" stroke-width="3.141" d="M149.684 185.899H168.437"/><path fill="#fff" stroke="#fff" stroke-linecap="round" stroke-linejoin="round" stroke-miterlimit="10" stroke-width="2.664" d="M146.245 148.975C146.245 143.887 151.979 139.761 159.053 139.761C166.126 139.761 171.86 143.887 171.86 148.975H146.245Z"/><path fill="#fff" stroke="#fff" stroke-linecap="round" stroke-linejoin="round" stroke-miterlimit="10" stroke-width="2.664" d="M175.51 2.29889C175.51 7.38747 165.48 8.0002 158.406 8.0002C151.333 8.0002 143.203 7.38759 143.203 2.299L175.51 2.29889Z"/><path fill="#fff" d="M171.64 154.959L146.48 160.409L171.64 154.959Z"/><path stroke="#fff" stroke-linecap="round" stroke-linejoin="round" stroke-miterlimit="10" stroke-width="3.086" d="M171.64 154.959L146.48 160.409"/><path fill="#fff" d="M155.605 153.247L146.527 155.101L155.605 153.247Z"/><path stroke="#fff" stroke-linecap="round" stroke-linejoin="round" stroke-miterlimit="10" stroke-width="3.141" d="M155.605 153.247L146.527 155.101"/><path fill="#fff" d="M171.593 160.268L162.516 162.121L171.593 160.268Z"/><path stroke="#fff" stroke-linecap="round" stroke-linejoin="round" stroke-miterlimit="10" stroke-width="3.141" d="M171.593 160.268L162.516 162.121"/><g filter="url(#filter0_dd_13_241)"><circle cx="158.406" cy="199.56" r="30.406" fill="#D9D9D9" fill-opacity=".01"/></g><path stroke="#FFFCFC" stroke-width="1.014" d="M158.913 138.763L158.913 8.00007"/><defs><filter id="filter0_dd_13_241" width="316.226" height="316.226" x=".293" y="41.447" color-interpolation-filters="sRGB" filterUnits="userSpaceOnUse"><feFlood flood-opacity="0" result="BackgroundImageFix"/><feColorMatrix in="SourceAlpha" result="hardAlpha" type="matrix" values="0 0 0 0 0 0 0 0 0 0 0 0 0 0 0 0 0 0 127 0"/><feOffset/><feGaussianBlur stdDeviation="9.122"/><feColorMatrix type="matrix" values="0 0 0 0 1 0 0 0 0 1 0 0 0 0 1 0 0 0 1 0"/><feBlend in2="BackgroundImageFix" mode="normal" result="effect1_dropShadow_13_241"/><feColorMatrix in="SourceAlpha" result="hardAlpha" type="matrix" values="0 0 0 0 0 0 0 0 0 0 0 0 0 0 0 0 0 0 127 0"/><feOffset/><feGaussianBlur stdDeviation="63.853"/><feColorMatrix type="matrix" values="0 0 0 0 1 0 0 0 0 1 0 0 0 0 1 0 0 0 1 0"/><feBlend in2="effect1_dropShadow_13_241" mode="normal" result="effect2_dropShadow_13_241"/><feBlend in="SourceGraphic" in2="effect2_dropShadow_13_241" mode="normal" result="shape"/></filter></defs></svg>